<?xml version="1.0" standalone="no"?>
<!DOCTYPE svg PUBLIC "-//W3C//DTD SVG 20010904//EN"
 "http://www.w3.org/TR/2001/REC-SVG-20010904/DTD/svg10.dtd">
<svg version="1.0" xmlns="http://www.w3.org/2000/svg"
 width="512.000000pt" height="512.000000pt" viewBox="0 0 512.000000 512.000000"
 preserveAspectRatio="xMidYMid meet">
<metadata>
Created by potrace 1.14, written by Peter Selinger 2001-2017
</metadata>
<g transform="translate(0.000000,512.000000) scale(0.100000,-0.100000)"
fill="#000000" stroke="none">
<path d="M1202 5033 c-32 -13 -89 -182 -137 -403 -28 -129 -30 -141 -39 -200
-3 -19 -10 -60 -16 -90 -6 -30 -13 -71 -16 -90 -3 -19 -9 -60 -14 -90 -5 -30
-12 -75 -15 -100 -5 -44 -9 -72 -20 -135 -3 -16 -8 -50 -10 -75 -8 -66 -25
-200 -30 -239 -3 -18 -8 -61 -11 -95 -3 -33 -7 -77 -9 -96 -2 -19 -7 -71 -10
-115 -3 -44 -8 -98 -10 -120 -19 -174 -25 -1014 -11 -1460 18 -594 34 -858 67
-1140 15 -131 18 -151 38 -250 38 -180 85 -275 135 -275 18 0 21 6 22 48 1 59
13 256 19 297 2 16 7 57 10 90 4 33 8 74 11 90 2 17 6 46 8 65 3 19 7 46 10
60 3 14 8 42 10 62 3 21 17 87 31 147 30 125 15 118 133 64 34 -16 59 -33 55
-38 -4 -4 -2 -5 4 -1 7 4 50 -9 95 -29 46 -20 97 -42 113 -50 17 -7 46 -20 65
-28 19 -9 58 -25 85 -37 87 -37 118 -51 180 -81 337 -160 573 -249 659 -249
60 0 177 36 316 97 69 31 135 56 147 57 11 0 19 4 17 7 -4 6 13 14 216 104 58
25 114 50 125 55 32 14 124 55 205 90 41 18 100 44 130 57 30 14 60 26 65 28
6 1 39 15 75 32 45 21 67 27 72 19 4 -7 20 -77 37 -156 26 -127 34 -177 46
-290 4 -31 14 -121 20 -175 3 -22 7 -78 10 -125 8 -123 15 -202 21 -211 9 -15
54 14 73 47 32 54 81 240 96 363 4 30 8 61 10 70 1 9 6 48 9 86 4 39 9 88 11
110 27 273 54 858 59 1267 0 65 5 108 11 108 7 0 7 3 0 8 -6 4 -10 134 -11
352 0 322 -8 627 -18 730 -3 25 -8 81 -12 125 -4 44 -8 94 -10 110 -1 17 -5
55 -8 85 -6 51 -8 76 -22 190 -3 25 -7 56 -9 70 -3 14 -7 48 -10 75 -3 28 -8
61 -10 75 -3 14 -7 45 -10 70 -3 25 -7 54 -9 65 -9 50 -19 112 -21 130 -1 11
-4 34 -8 50 -4 17 -9 46 -11 65 -3 19 -9 60 -15 90 -6 30 -13 69 -16 85 -2 17
-16 82 -30 145 -14 63 -28 126 -31 140 -5 27 -41 145 -51 170 -3 8 -7 17 -8
20 -43 126 -125 83 -155 -81 -6 -30 -12 -64 -14 -76 -5 -25 -14 -124 -21 -243
-3 -47 -8 -112 -10 -145 -3 -33 -7 -89 -10 -125 -19 -288 -23 -323 -55 -525
-22 -135 -55 -304 -62 -310 -3 -3 -22 4 -44 14 -322 154 -428 193 -594 217
-19 2 -44 7 -55 9 -11 2 -61 7 -110 10 -50 4 -106 8 -125 11 -105 12 -516 -1
-618 -21 -9 -1 -39 -6 -67 -9 -74 -10 -200 -45 -290 -82 -80 -32 -283 -124
-319 -145 -25 -15 -31 -4 -47 90 -7 42 -13 78 -14 81 -8 31 -15 73 -21 110 -3
24 -7 47 -9 50 -1 3 -6 32 -9 65 -4 33 -9 67 -11 75 -4 19 -14 121 -20 220 -3
41 -8 113 -11 160 -4 47 -8 103 -9 125 -3 52 -14 202 -21 285 -12 156 -43 265
-86 301 -22 20 -25 21 -46 12z m281 -2979 c51 -26 133 -68 182 -94 175 -92
411 -213 500 -257 144 -70 154 -76 149 -85 -3 -4 1 -5 8 -3 21 8 79 -58 88
-101 25 -109 -56 -219 -187 -258 -91 -26 -306 -13 -442 28 -233 69 -407 255
-470 504 -22 87 -25 242 -6 290 14 32 17 34 51 29 19 -3 77 -27 127 -53z
m2405 47 c20 -12 29 -68 27 -158 -3 -79 -20 -182 -35 -212 -4 -9 -16 -36 -26
-61 -38 -96 -132 -217 -224 -289 -111 -85 -311 -138 -516 -136 -108 1 -124 4
-176 29 -91 43 -148 124 -148 208 0 80 41 115 283 236 111 57 254 130 317 163
426 224 465 242 498 220z"/>
<path d="M1480 624 c0 -8 5 -12 10 -9 6 4 8 11 5 16 -9 14 -15 11 -15 -7z"/>
</g>
</svg>
